<svg width="24" height="23" fill="none" xmlns="http://www.w3.org/2000/svg"><g clip-path="url(#clip0_143_40)" fill="#fff"><path d="M13.922 16.616a3.456 3.456 0 01-3.844 0L.653 10.333a3.424 3.424 0 01-.153-.108V20.52c0 1.18.958 2.118 2.117 2.118h18.766c1.18 0 2.117-.958 2.117-2.118V10.225a3.35 3.35 0 01-.154.108l-9.424 6.283z"/><path d="M1.4 9.212l9.425 6.283a2.115 2.115 0 002.35 0l9.424-6.283a2.02 2.02 0 00.901-1.684c0-1.167-.95-2.116-2.117-2.116H2.617A2.12 2.12 0 00.5 7.529a2.018 2.018 0 00.9 1.683z"/></g><defs><clipPath id="clip0_143_40"><path fill="#fff" transform="translate(.5)" d="M0 0h23v23H0z"/></clipPath></defs></svg>