<svg data-name="Шар 1" xmlns="http://www.w3.org/2000/svg" viewBox="0 0 1504.99 365.37"><path d="M485.23 280.74h-39.61v9.64h28.13c-.88 6.83-2.18 10.5-5.07 14.33-4.86 6.91-14.07 11.55-22.93 11.55-16.14 0-28.79-13.91-28.79-31.66s12.48-31.78 29.03-31.78c5.73 0 11.32 1.76 15.77 4.96 2.15 1.41 3.56 2.81 6.71 6.28l.32.35 8.42-6.73-.32-.39c-7.77-9.62-18.45-14.71-30.89-14.71-23.46 0-40.49 17.72-40.49 42.14S422.54 326.5 446 326.5c12.35 0 23.04-5.13 30.9-14.83 6.03-7.54 8.5-15.03 8.5-25.87 0-.72 0-2.9-.12-4.6l-.03-.46zm89.34 7.67c7.7-4.04 11.93-11.36 11.93-20.6 0-14.89-10.55-23.78-28.21-23.78h-22.62v81.04h11.21v-32.83l30.76 32.83h14.38l-31.55-33.31c6.76-.49 10.27-1.34 14.09-3.34zm-27.69-34.74h11.41c10.96 0 16.76 5.14 16.76 14.86s-6.56 15.1-18.46 15.1h-9.71v-29.96zm159.45 2.88c-7.88-8.88-18.92-13.97-30.27-13.97-23.15 0-40.61 18.22-40.61 42.38 0 10.22 2.98 19.33 8.62 26.35 7.66 9.51 19.52 15.19 31.75 15.19 9.58 0 18.89-3.45 26.21-9.72 8.97-7.52 13.91-18.7 13.91-31.46s-2.96-21.12-9.6-28.77zm-30.51-3.61c6.98 0 14.3 3.04 19.59 8.14 6.2 5.88 9.08 13.54 9.08 24.12 0 8.08-3 16.56-7.65 21.63-5.28 5.91-13.23 9.43-21.26 9.43-16.61 0-28.67-13.31-28.67-31.66s12.16-31.66 28.91-31.66zm139.26 38.98c0 10.72-1.09 14.54-5.33 18.61-3.36 3.43-8.97 5.73-13.98 5.73s-10.74-2.16-13.99-5.26c-3.79-3.74-5.2-8.85-5.2-18.84v-48.14h-11.21v47.9c0 12.69 1.62 18.6 6.68 24.32 5.5 6.52 14.23 10.26 23.96 10.26s17.66-3.43 23.22-9.64c5.25-5.79 7.3-12.78 7.3-24.94v-47.9h-11.45v47.9zm87.64-47.89h-22.13v81.04h11.21v-30.6h12.02c9 0 15.47-1.79 20.37-5.63 5.6-4.55 8.81-11.77 8.81-19.83 0-16.11-10.75-24.98-30.28-24.98zm-10.92 9.64h8.74c4.73 0 7.95.44 11.14 1.53 6.26 2.1 9.99 7.35 9.99 14.05s-3.78 12.04-9.89 14.17c-2.62 1.01-5.4 1.41-9.91 1.41H891.8v-31.16zM509.97 55.59l-43.35 93.62-40.48-93.62h-19.61v125.62h20.85v-76.22l32.95 76h12.63l35.58-76.7v76.92h20.81V55.59h-19.38zm246.09 66.45c-5.5-5.26-12.25-8.57-26.77-13.12-12.84-4.03-16.21-5.34-20.05-7.78-3.8-2.4-5.97-6.32-5.97-10.76 0-9.31 7.78-15.82 18.92-15.82 7.18 0 13.58 2.62 16.73 6.83 1.63 2.52 2.39 4.64 2.57 10.3l.09 2.9h22.28l-.09-3.09c-.63-21.8-16.88-35.89-41.4-35.89s-41.59 14.73-41.59 35.81c0 9.82 3.87 18.15 11.21 24.09 6.2 4.96 11.53 7.34 27.2 12.1 20.69 6.15 24.03 10.29 24.03 17.84 0 9.72-8.97 16.51-21.82 16.51s-19.22-5.79-19.89-17.21l-.17-2.82h-21.35v5.42c0 6.21 1.62 11.66 4.95 16.66 7.45 11.37 19.56 16.9 37.03 16.9 25.75 0 43.73-14.94 43.73-36.32 0-8.61-3.43-16.62-9.66-22.55zm309.93-66.57v72.48c0 14.92-1.52 20.18-7.45 25.65-4.72 4.64-12.67 7.75-19.78 7.75s-15.27-2.93-19.82-7.09c-5.27-5-7.23-12.03-7.23-25.96V55.47h-21.57v72.48c0 19.04 2.73 28.42 10.76 37.15 8.83 10.04 22.76 15.8 38.23 15.8s28.16-5.28 37.05-14.84c8.46-8.95 11.76-19.64 11.76-38.11V55.47h-21.95zm129.16.14h-21.64l-45.97 125.29h21.52l10.64-27.54h47.94l9.6 27.54h22.77l-44.87-125.29zm5.85 78.87h-34.71l17.64-48.07 17.07 48.07zm177.47 42.03c-5.81-11.18-11.62-22.37-17.42-33.55l-8.51-16.4c.37-.16.73-.33 1.09-.5 13.63-6.42 21.14-18.05 21.14-32.75 0-23.24-18.83-37.68-49.15-37.68h-39.8v125.26h23.01V130.9l18.68.47h.11c1.15-.06 2.23-.13 3.19-.21l24.75 49.73h25.18l-2.28-4.38zm-27.09-82.12c0 16.73-15.53 20.24-28.55 20.24h-14V74.5h16.79c17.09 0 25.76 6.69 25.76 19.89zm153.61-19.2V56.41h-77.98v124.37h77.98V162h-55.53v-34.46h51.53v-18.78h-51.53V75.19h55.53zm-627.7-19.68c-34.42 0-60.37 27.23-60.37 63.35 0 16.94 4.95 31 14.73 41.79C843.22 173.4 860.08 181 876.77 181c13.78 0 25.21-4.03 37-13.04a55.61 55.61 0 0010.14-9.68c2.23-2.75 6.43-8.63 9.52-17.22.38-1.06 3.71-10.68 3.71-23.24 0-35.52-25.73-62.31-59.85-62.31zm40.97 63.88c-.02 1.07-.62 26.1-19.26 37.08-9.34 5.5-19.1 5.16-22.31 5.05-2.96-.1-10.83-.37-18.52-4.69-19.6-10.99-20.24-38.42-20.25-38.69-.06-4.32-.24-17.47 9.29-28.85 11.48-13.7 28.08-14.26 29.94-14.28h.43c14.85 0 24.96 8.6 28.63 12.33 8 8.11 12.27 19.49 12.05 32.06zm-17.22 78.09c-4.31.33-8.46-.11-12.35-1.32-1.87-.57-3.17-1.17-4.68-1.86l-.23-.1c-1.87-.86-4.2-1.93-7.4-2.82-5.81-1.63-12.11-2.03-18.72-1.2l-2.62.33v19.26l3.51-.6c4.63-.79 8.92-.65 12.77.43 1.83.5 3.07 1.08 4.67 1.82 1.8.83 4.04 1.85 7.15 2.81 4.86 1.5 9.97 2.26 15.19 2.26 1.04 0 2.1-.03 3.14-.1l2.82-.17v-19l-3.23.25zM285.68 5.62c-3.47-4.2-9.03-6.28-14.52-5.42-25.81 4.04-73 54.62-140.22 150.33-12.21 17.16-23.16 35.43-33.75 53.1-2.27 3.79-4.58 7.65-6.92 11.51 0-2.44.12-4.81.51-7.19 1.51-10.57 2.9-21.32 4.24-31.71.89-6.9 1.78-13.81 2.71-20.71l.02-.23c.19-2.25.63-5.98 1.18-10.7 5.99-50.98 9.2-99.47-7.71-108.98-5.97-3.35-13.24-1.73-21.63 4.82-3.09 2.41-5.99 5.25-8.61 8.43C31.24 84.89 9.95 139.12 2.55 197.66l-.02.17c-.14 1.64-.31 3.43-.49 5.34-2.21 23.53-5.9 62.92 9.58 78.8l.16.16a8.214 8.214 0 0010.04.89c1.78-1.14 3.6-3.41 2.21-7.73-.04-.14-.1-.28-.13-.41-.48-2.22-1.67-3.71-2.55-4.79-.3-.37-.61-.76-.73-.99l-.06-.12c-4.27-7.79-4.16-16.79-4.04-26.33l.02-1.55c1.41-59.75 17.31-117.7 44.77-163.2 13.27-20.76 21.37-26.72 24.06-26.97.23-.02.24-.02.41.17.34.36.59.73.63.81 1.22 3.25 1.8 5.71 1.93 8.23.95 18.26-.95 36.86-2.79 54.84l-.06.63c-.97 12.15-2.2 25.35-3.88 41.53-.45 4.37-1.07 9.07-1.88 14.39-.79 5.13-1.35 10.34-1.89 15.37-.27 2.46-.53 4.92-.83 7.38v.11c-.25 2.56-.59 5.13-.94 7.85-1.27 9.79-2.58 19.92.34 29.87.73 2.48 2.12 4.66 4.04 6.28 3.04 2.58 6.07 2.76 8.08 2.46 6.92-1.03 12.16-9.17 16.36-15.71 1.04-1.62 2.02-3.15 2.76-4.11l.08-.11c2.05-2.85 3.89-5.83 5.67-8.71.84-1.36 1.69-2.73 2.56-4.09 28.66-45.13 63.58-97.59 105.25-144.57 14.47-16.25 30.27-32.96 50.18-43.13.69-.31 1.77-.34 2.39-.24.7 1.09 1.04 2.29 1.13 3.81 1.04 28.7-3.91 57.72-8.69 85.78-1.67 9.8-3.4 19.94-4.84 29.86-10.04 61.83-25.75 123.69-40.95 183.51l-1.2 4.72c-.53 2.02-1.04 4.06-1.54 6.09-1.27 5.11-2.59 10.39-4.27 15.4-.84 2.49-2.11 6.26-1.45 10.18.48 2.87 1.91 4.73 4.26 5.53.61.21 1.37.33 2.05.33h.02c7.01 0 9.11-8.71 9.9-12.01 1.4-5.89 3.27-11.83 5.08-17.58 1.46-4.63 2.97-9.42 4.25-14.24 19.6-63.85 34.74-128.74 45.01-192.93.48-3.22.97-6.43 1.46-9.65 2.56-16.88 5.21-34.34 6.89-51.78.11-1.39.27-3.1.46-5.06 2.07-21.49 3.51-45.34-5.7-56.5z"/></svg>