<svg width="24" height="23" fill="none" xmlns="http://www.w3.org/2000/svg"><g clip-path="url(#clip0_143_72)"><path d="M21.654 15.097c-1.408 0-2.79-.22-4.1-.653-.642-.22-1.432-.018-1.824.384l-2.586 1.952c-2.999-1.6-4.846-3.448-6.425-6.424l1.894-2.519c.493-.492.67-1.21.458-1.884a13.079 13.079 0 01-.656-4.107A1.848 1.848 0 006.569 0H2.346A1.848 1.848 0 00.5 1.846C.5 13.51 9.99 23 21.654 23a1.848 1.848 0 001.846-1.846v-4.212a1.848 1.848 0 00-1.846-1.845z" fill="#fff"/></g><defs><clipPath id="clip0_143_72"><path fill="#fff" transform="translate(.5)" d="M0 0h23v23H0z"/></clipPath></defs></svg>