<svg width="50" height="50" fill="none" xmlns="http://www.w3.org/2000/svg"><circle cx="25" cy="25" r="25" fill="#60D669"/><g clip-path="url(#clip0_0_370)"><path d="M10.641 24.82a14.2 14.2 0 001.925 7.151l-2.045 7.412 7.643-1.989a14.5 14.5 0 006.89 1.741h.007c7.946 0 14.415-6.416 14.418-14.303a14.16 14.16 0 00-4.22-10.12c-2.721-2.703-6.341-4.193-10.199-4.194-7.947 0-14.415 6.416-14.418 14.302" fill="url(#paint0_linear_0_370)"/><path d="M10.127 24.816a14.7 14.7 0 001.993 7.407l-2.119 7.678 7.918-2.06a15.02 15.02 0 007.137 1.803h.007c8.231 0 14.932-6.647 14.936-14.816a14.67 14.67 0 00-4.371-10.483c-2.82-2.8-6.57-4.343-10.565-4.345-8.233 0-14.933 6.646-14.936 14.816zm4.715 7.02l-.296-.465a12.214 12.214 0 01-1.897-6.554c.002-6.79 5.57-12.315 12.418-12.315a12.382 12.382 0 018.777 3.612 12.193 12.193 0 013.633 8.713c-.003 6.79-5.572 12.315-12.414 12.315h-.005a12.473 12.473 0 01-6.319-1.717l-.453-.267-4.699 1.223 1.255-4.545z" fill="url(#paint1_linear_0_370)"/><path d="M21.33 18.622c-.28-.617-.574-.63-.84-.64-.218-.01-.466-.009-.715-.009-.25 0-.653.093-.995.464-.342.37-1.307 1.266-1.307 3.088s1.338 3.583 1.524 3.83c.187.247 2.582 4.106 6.375 5.59 3.153 1.234 3.794.988 4.479.927.684-.062 2.208-.896 2.519-1.76.31-.865.31-1.606.217-1.761-.093-.155-.342-.247-.715-.432-.373-.186-2.208-1.082-2.55-1.205-.342-.124-.591-.185-.84.185s-.963 1.205-1.181 1.452c-.218.247-.436.278-.809.093-.373-.186-1.575-.577-3.001-1.838-1.11-.982-1.859-2.194-2.076-2.565-.218-.37-.024-.57.163-.755.168-.166.374-.433.56-.649.187-.216.249-.37.373-.617.125-.248.063-.464-.03-.65-.094-.184-.82-2.016-1.151-2.748z" fill="#fff"/></g><defs><linearGradient id="paint0_linear_0_370" x1="1458.44" y1="2897.09" x2="1458.44" y2="10.518" gradientUnits="userSpaceOnUse"><stop stop-color="#1FAF38"/><stop offset="1" stop-color="#60D669"/></linearGradient><linearGradient id="paint1_linear_0_370" x1="1509.87" y1="3000.08" x2="1509.87" y2="10" gradientUnits="userSpaceOnUse"><stop stop-color="#F9F9F9"/><stop offset="1" stop-color="#fff"/></linearGradient><clipPath id="clip0_0_370"><path fill="#fff" transform="translate(10 10)" d="M0 0h30v30H0z"/></clipPath></defs></svg>