<svg width="24" height="23" viewBox="0 0 24 23" fill="none" xmlns="http://www.w3.org/2000/svg">
<g clip-path="url(#clip0_143_52)">
<path d="M12 23C18.3497 23 23.5 17.8497 23.5 11.5C23.5 5.15034 18.3497 0 12 0C5.65034 0 0.5 5.15034 0.5 11.5C0.5 17.8497 5.65034 23 12 23ZM11.1785 4.92858C11.1785 4.47678 11.5482 4.10713 12 4.10713C12.4518 4.10713 12.8215 4.47678 12.8215 4.92858V11.1057L16.6206 14.145C16.9738 14.4284 17.0313 14.9459 16.7479 15.2991C16.6712 15.3954 16.5737 15.4731 16.4628 15.5265C16.3518 15.5798 16.2302 15.6074 16.1071 15.6071C15.9264 15.6071 15.7457 15.5496 15.5938 15.4264L11.4866 12.1407C11.2936 11.9846 11.1786 11.7506 11.1786 11.5V4.92858H11.1785Z" fill="white"/>
</g>
<defs>
<clipPath id="clip0_143_52">
<rect width="23" height="23" fill="white" transform="translate(0.5)"/>
</clipPath>
</defs>
</svg>
