<svg width="24" height="23" viewBox="0 0 24 23" fill="none" xmlns="http://www.w3.org/2000/svg">
<g clip-path="url(#clip0_143_40)">
<path d="M13.9222 16.6165C13.3499 16.9979 12.6853 17.1996 12 17.1996C11.3148 17.1996 10.6501 16.9979 10.0779 16.6165L0.653139 10.3331C0.60111 10.2983 0.550045 10.2621 0.5 10.2245L0.5 20.5205C0.5 21.7009 1.45796 22.6378 2.6173 22.6378H21.3827C22.5631 22.6378 23.5 21.6798 23.5 20.5205V10.2245C23.4498 10.2622 23.3987 10.2985 23.3465 10.3333L13.9222 16.6165Z" fill="white"/>
<path d="M1.40068 9.21177L10.8254 15.4952C11.1822 15.733 11.5911 15.8519 12 15.8519C12.4089 15.8519 12.8178 15.733 13.1746 15.4952L22.5993 9.21177C23.1633 8.836 23.5 8.2071 23.5 7.52833C23.5 6.36121 22.5505 5.41174 21.3834 5.41174H2.61659C1.44951 5.41179 0.500001 6.36126 0.500001 7.52945C0.499651 7.86241 0.581714 8.19029 0.738871 8.48383C0.896027 8.77737 1.12339 9.02746 1.40068 9.21177Z" fill="white"/>
</g>
<defs>
<clipPath id="clip0_143_40">
<rect width="23" height="23" fill="white" transform="translate(0.5)"/>
</clipPath>
</defs>
</svg>
