<svg width="10" height="18" viewBox="0 0 10 18" fill="none" xmlns="http://www.w3.org/2000/svg">
<path d="M6.26503 6.12284V4.6495C6.26294 4.47993 6.27303 4.31042 6.29522 4.14229C6.31645 4.01711 6.36377 3.89779 6.4341 3.79207C6.47255 3.73097 6.52279 3.67814 6.58188 3.63667C6.64098 3.5952 6.70774 3.56592 6.77828 3.55054C6.98805 3.50195 7.20305 3.47964 7.41833 3.48412H8.91582V0.603882H6.59109C5.2506 0.603882 4.28448 0.91787 3.70481 1.55189C3.06589 2.33765 2.75062 3.33746 2.82323 4.34759V6.12284H1.0661V9.00308H2.82323V17.3962H6.34352L6.26503 9.00308H8.5656L8.86751 6.12284H6.26503Z" stroke="#FFD600" stroke-width="1.20765" stroke-miterlimit="10"/>
</svg>
