<svg width="18" height="18" viewBox="0 0 18 18" fill="none" xmlns="http://www.w3.org/2000/svg">
<path d="M15.3492 0.603882H2.65078C1.52028 0.603882 0.603821 1.52034 0.603821 2.65085V15.3493C0.603821 16.4798 1.52028 17.3962 2.65078 17.3962H15.3492C16.4797 17.3962 17.3962 16.4798 17.3962 15.3493V2.65085C17.3962 1.52034 16.4797 0.603882 15.3492 0.603882Z" stroke="#FFD600" stroke-width="1.20765" stroke-miterlimit="10"/>
<path d="M9.00302 12.6139C10.9972 12.6139 12.6139 10.9973 12.6139 9.00308C12.6139 7.00885 10.9972 5.39221 9.00302 5.39221C7.00879 5.39221 5.39215 7.00885 5.39215 9.00308C5.39215 10.9973 7.00879 12.6139 9.00302 12.6139Z" stroke="#FFD600" stroke-width="1.20765" stroke-miterlimit="10"/>
<path d="M14.842 4.22682C14.8432 4.43632 14.7821 4.64145 14.6664 4.81615C14.5508 4.99084 14.3858 5.12721 14.1925 5.20794C13.9992 5.28867 13.7862 5.3101 13.5807 5.26952C13.3751 5.22894 13.1863 5.12818 13.0381 4.98003C12.89 4.83189 12.7892 4.64305 12.7486 4.43751C12.7081 4.23197 12.7295 4.01901 12.8102 3.82568C12.891 3.63235 13.0273 3.46738 13.202 3.35173C13.3767 3.23608 13.5818 3.17497 13.7914 3.17616C14.07 3.17616 14.3372 3.28686 14.5343 3.48389C14.7313 3.68093 14.842 3.94817 14.842 4.22682Z" fill="#FFD600"/>
</svg>
