<svg width="24" height="23" viewBox="0 0 24 23" fill="none" xmlns="http://www.w3.org/2000/svg">
<g clip-path="url(#clip0_0_213)">
<path d="M12 0C9.71344 0.00304266 7.52141 0.912723 5.90456 2.52956C4.28772 4.14641 3.37804 6.33844 3.375 8.625C3.375 14.817 11.4106 22.5723 11.752 22.8994C11.8184 22.9639 11.9074 23 12 23C12.0926 23 12.1816 22.9639 12.248 22.8994C12.5894 22.5723 20.625 14.817 20.625 8.625C20.622 6.33844 19.7123 4.14641 18.0954 2.52956C16.4786 0.912723 14.2866 0.00304266 12 0ZM12 12.5781C11.2181 12.5781 10.4538 12.3463 9.80376 11.9119C9.15367 11.4775 8.64699 10.8601 8.34779 10.1378C8.04859 9.41546 7.9703 8.62061 8.12283 7.85378C8.27537 7.08695 8.65186 6.38257 9.20472 5.82972C9.75757 5.27686 10.462 4.90037 11.2288 4.74783C11.9956 4.5953 12.7905 4.67359 13.5128 4.97279C14.2351 5.27199 14.8525 5.77867 15.2869 6.42876C15.7213 7.07885 15.9531 7.84315 15.9531 8.625C15.9525 9.67323 15.5358 10.6783 14.7945 11.4195C14.0533 12.1608 13.0482 12.5775 12 12.5781Z" fill="white"/>
</g>
<defs>
<clipPath id="clip0_0_213">
<rect width="23" height="23" fill="white" transform="translate(0.5)"/>
</clipPath>
</defs>
</svg>
