<svg width="24" height="23" viewBox="0 0 24 23" fill="none" xmlns="http://www.w3.org/2000/svg">
<g clip-path="url(#clip0_143_72)">
<path d="M21.6545 15.0969C20.2463 15.0969 18.8637 14.8766 17.5535 14.4436C16.9115 14.2247 16.1222 14.4256 15.7304 14.828L13.1443 16.7802C10.1451 15.1793 8.29766 13.3325 6.71857 10.3558L8.61337 7.83707C9.10565 7.34545 9.28223 6.62729 9.07067 5.95347C8.63583 4.63636 8.41494 3.25438 8.41494 1.84563C8.415 0.82794 7.58706 0 6.56942 0H2.34557C1.32794 0 0.5 0.82794 0.5 1.84557C0.5 13.5103 9.98978 23 21.6545 23C22.6721 23 23.5001 22.1721 23.5001 21.1544V16.9424C23.5 15.9248 22.6721 15.0969 21.6545 15.0969Z" fill="white"/>
</g>
<defs>
<clipPath id="clip0_143_72">
<rect width="23" height="23" fill="white" transform="translate(0.5)"/>
</clipPath>
</defs>
</svg>
