<svg width="50" height="50" viewBox="0 0 50 50" fill="none" xmlns="http://www.w3.org/2000/svg">
<circle cx="25" cy="25" r="25" fill="#60D669"/>
<g clip-path="url(#clip0_0_370)">
<path d="M10.6414 24.8204C10.6407 27.341 11.3044 29.8021 12.5664 31.9714L10.5208 39.3833L18.1645 37.3944C20.2786 38.5365 22.6474 39.135 25.0545 39.1351H25.0608C33.0072 39.1351 39.4758 32.7185 39.4792 24.8316C39.4807 21.0099 37.9822 17.4162 35.2597 14.7125C32.5377 12.009 28.9175 10.5193 25.0602 10.5176C17.1129 10.5176 10.6448 16.9339 10.6416 24.8204" fill="url(#paint0_linear_0_370)"/>
<path d="M10.1267 24.8158C10.1259 27.4271 10.8134 29.9763 12.1204 32.2233L10.0013 39.9008L17.9191 37.8407C20.1007 39.021 22.557 39.6434 25.0564 39.6443H25.0629C33.2943 39.6443 39.9952 32.9969 39.9988 24.8277C40.0002 20.8686 38.4478 17.1457 35.628 14.3451C32.8079 11.5449 29.0583 10.0016 25.0629 10C16.83 10 10.13 16.6465 10.1267 24.8158ZM14.8419 31.8363L14.5463 31.3706C13.3035 29.4096 12.6476 27.1436 12.6485 24.8167C12.6512 18.0266 18.2199 12.5023 25.0675 12.5023C28.3837 12.5037 31.5001 13.7865 33.8441 16.114C36.188 18.4416 37.4778 21.5358 37.477 24.8267C37.4739 31.6169 31.9051 37.1419 25.0629 37.1419H25.0579C22.83 37.1407 20.645 36.547 18.7395 35.425L18.286 35.1581L13.5874 36.3806L14.8419 31.8362V31.8363Z" fill="url(#paint1_linear_0_370)"/>
<path d="M21.3298 18.6219C21.0502 18.0053 20.7559 17.9928 20.4901 17.982C20.2723 17.9727 20.0235 17.9734 19.7748 17.9734C19.5259 17.9734 19.1216 18.0663 18.7797 18.4367C18.4376 18.8074 17.4734 19.7032 17.4734 21.5251C17.4734 23.3472 18.8108 25.1081 18.9972 25.3554C19.1839 25.6022 21.579 29.4608 25.3723 30.9453C28.5248 32.1789 29.1664 31.9335 29.8506 31.8717C30.5349 31.81 32.0586 30.9761 32.3695 30.1113C32.6806 29.2467 32.6806 28.5055 32.5873 28.3506C32.4941 28.1963 32.2452 28.1036 31.872 27.9185C31.4986 27.7333 29.6639 26.8374 29.3218 26.7137C28.9797 26.5903 28.7309 26.5286 28.482 26.8994C28.2332 27.2697 27.5185 28.1036 27.3007 28.3506C27.0831 28.5982 26.8652 28.629 26.4921 28.4437C26.1187 28.2579 24.9168 27.8674 23.4909 26.6058C22.3814 25.6242 21.6324 24.412 21.4147 24.0412C21.197 23.671 21.3914 23.4703 21.5785 23.2857C21.7462 23.1198 21.9519 22.8533 22.1386 22.6371C22.3247 22.4208 22.3868 22.2665 22.5113 22.0196C22.6358 21.7724 22.5735 21.5561 22.4803 21.3708C22.3868 21.1856 21.6616 19.3541 21.3298 18.6219Z" fill="white"/>
</g>
<defs>
<linearGradient id="paint0_linear_0_370" x1="1458.44" y1="2897.09" x2="1458.44" y2="10.5176" gradientUnits="userSpaceOnUse">
<stop stop-color="#1FAF38"/>
<stop offset="1" stop-color="#60D669"/>
</linearGradient>
<linearGradient id="paint1_linear_0_370" x1="1509.87" y1="3000.08" x2="1509.87" y2="10" gradientUnits="userSpaceOnUse">
<stop stop-color="#F9F9F9"/>
<stop offset="1" stop-color="white"/>
</linearGradient>
<clipPath id="clip0_0_370">
<rect width="30" height="30" fill="white" transform="translate(10 10)"/>
</clipPath>
</defs>
</svg>
